# Blender 4.3.0
# www.blender.org
mtllib iceberg.mtl
o Icosphere
v 0.045123 0.909847 -0.698726
v -0.704099 0.738973 -0.375005
v -0.793966 0.738973 0.481496
v -0.448273 0.738973 0.745843
v 0.175926 0.870343 0.672894
v 0.671462 0.720683 0.267861
v 0.440779 0.790353 -0.375005
v 0.045175 1.251449 -0.541178
v -0.495281 1.222051 -0.172707
v -0.605008 1.232438 0.405980
v -0.231065 1.211582 0.492991
v 0.210068 1.157505 0.488162
v 0.517970 1.207302 0.235862
v 0.380426 1.235539 -0.329459
v -0.073603 1.596327 -0.300074
v -0.338242 1.479515 0.039035
v -0.541516 1.494711 0.321466
v -0.283521 1.592090 0.518210
v 0.036400 1.621013 0.514720
v 0.279855 1.721514 0.198509
v 0.154292 1.646866 -0.210091
v 0.006860 1.954879 -0.235220
v -0.296253 1.949617 -0.096388
v -0.333681 1.947787 0.260763
v -0.137692 1.967553 0.366955
v 0.093063 1.937294 0.364426
v 0.245030 1.928662 0.171680
v 0.182340 1.945072 -0.124352
v -0.174582 2.162920 -0.097175
v -0.337606 2.178081 0.001774
v -0.355240 2.171422 0.181423
v -0.264475 2.211164 0.234839
v -0.149339 2.232329 0.233567
v -0.075259 2.251675 0.136614
v -0.107804 2.249845 -0.012293
v -0.289050 2.298467 0.101123
v 0.115689 0.332339 -0.686438
v -0.614010 0.222479 -0.367679
v -0.702499 0.222479 0.475689
v -0.362107 0.222479 0.735982
v 0.248134 0.308665 0.664153
v 0.631621 0.251232 0.265330
v 0.516309 0.260729 -0.367679
v 0.001351 -0.242718 -0.615982
v -0.657646 -0.284854 -0.325681
v -0.738071 -0.289996 0.442396
v -0.428699 -0.270215 0.679452
v 0.123634 -0.234900 0.614035
v 0.586890 -0.205280 0.250817
v 0.371234 -0.219068 -0.325681
v 0.110927 -0.593783 -0.948570
v -0.854979 -0.593783 -0.523937
v -0.972860 -0.593783 0.599555
v -0.519406 -0.593783 0.946305
v 0.290160 -0.593783 0.850617
v 0.969164 -0.593783 0.319325
v 0.653072 -0.593783 -0.523937
vn 0.9273 -0.3273 0.1817
vn -0.5103 -0.3601 0.7810
vn -0.5924 -0.2375 -0.7698
vn 0.1653 -0.5233 -0.8360
vn 0.4370 -0.5016 0.7466
vn -0.9619 -0.1536 0.2264
vn -0.0746 -0.5332 -0.8427
vn -0.8394 -0.5133 0.1786
vn -0.0041 0.0557 -0.9984
vn 0.8114 -0.0081 0.5844
vn -0.1734 -0.6037 0.7781
vn -0.5694 -0.3187 -0.7578
vn 0.5690 0.1322 -0.8116
vn 0.6822 -0.6654 0.3032
vn 0.4550 -0.4791 -0.7506
vn 0.7636 0.1149 0.6354
vn -0.9562 0.0058 0.2928
vn -0.0648 -0.4188 -0.9058
vn 0.7725 -0.2779 0.5710
vn -0.3483 -0.0906 0.9330
vn -0.7727 -0.2076 -0.5999
vn -0.0689 -0.4513 -0.8897
vn 0.9861 0.1311 0.1017
vn -0.1453 -0.6319 0.7613
vn -0.6089 -0.6527 -0.4508
vn 0.4820 -0.2104 -0.8505
vn 0.4809 -0.2712 0.8338
vn -0.6854 -0.7107 0.1585
vn 0.3352 -0.6764 0.6558
vn -0.2230 -0.9729 0.0607
vn 0.1439 -0.8163 -0.5594
vn 0.9026 -0.4242 0.0729
vn 0.1889 -0.7565 0.6261
vn -0.1548 -0.9394 -0.3058
vn 0.5800 -0.6292 -0.5174
vn -0.9803 0.0822 0.1798
vn -0.1168 -0.0005 -0.9932
vn 0.9797 0.1723 0.1028
vn -0.6293 -0.0791 0.7731
vn -0.6440 -0.0709 -0.7617
vn 0.6034 0.1157 -0.7890
vn 0.3830 0.0664 0.9214
vn -0.1248 0.1297 -0.9837
vn 0.9916 -0.0767 0.1040
vn -0.5771 0.2427 0.7798
vn -0.6115 0.2104 -0.7628
vn 0.6078 0.0094 -0.7940
vn 0.3958 0.0337 0.9177
vn -0.9796 0.0903 0.1798
vn 0.3232 -0.5957 0.7353
vn -0.7101 -0.6518 0.2662
vn -0.0520 -0.6267 -0.7775
vn 0.8139 -0.5747 0.0854
vn -0.4628 -0.6608 0.5909
vn -0.4551 -0.6276 -0.6317
vn 0.4800 -0.6662 -0.5708
vn 0.8988 -0.4280 0.0943
vn -0.6539 -0.1642 0.7386
vn -0.6537 -0.3529 -0.6694
vn 0.5726 -0.3338 -0.7488
vn 0.5402 -0.3525 0.7642
vn -0.9154 -0.2691 0.2993
vn -0.0042 -0.4702 -0.8825
vn -0.8643 -0.3759 0.3343
vn -0.0167 0.0638 -0.9978
vn 0.7795 -0.6060 0.1587
vn -0.4849 -0.4789 0.7318
vn -0.7317 -0.2376 -0.6389
vn 0.1947 -0.3432 -0.9189
vn 0.5408 -0.3488 0.7654
vn 0.6471 -0.3850 -0.6580
vn 0.4068 -0.2502 0.8786
vn -0.9705 -0.1375 0.1979
vn 0.0244 -0.3817 -0.9240
vn 0.9929 -0.0588 0.1037
vn -0.5321 -0.1873 0.8257
vn -0.7551 -0.1661 -0.6342
vn 0.0722 -0.4462 -0.8920
vn 0.9856 0.1337 0.1040
vn -0.4338 -0.6445 0.6296
vn -0.5229 -0.6657 -0.5324
vn 0.5658 -0.2267 -0.7928
vn 0.4086 -0.2298 0.8833
vn -0.7117 -0.6935 0.1123
vn -0.9377 -0.1293 0.3225
vn -0.1162 0.0005 -0.9932
vn -0.6432 -0.0624 0.7631
vn -0.7147 0.0644 -0.6965
vn 0.3888 0.0808 0.9178
vn -0.1329 0.1211 -0.9837
vn 0.9918 -0.0756 0.1033
vn -0.6114 0.2149 0.7616
vn -0.7111 0.0918 -0.6970
vn 0.6074 0.0090 -0.7943
vn 0.4006 0.0413 0.9153
vn -0.8959 0.2996 0.3280
vn 0.3402 -0.6521 0.6775
vn -0.6928 -0.6666 0.2751
vn -0.0957 -0.5784 -0.8101
vn 0.8084 -0.5830 0.0807
vn -0.4191 -0.6899 0.5902
vn -0.4941 -0.5976 -0.6315
vn 0.4685 -0.6366 -0.6126
vt 0.960054 0.414517
vt 0.798567 0.558207
vt 0.965422 0.561297
vt 0.640267 0.419137
vt 0.532407 0.562219
vt 0.624437 0.566951
vt 0.389452 0.409077
vt 0.285207 0.539008
vt 0.389308 0.553820
vt 0.110329 0.414517
vt 0.031188 0.561297
vt 0.133586 0.555093
vt 0.789223 0.414517
vt 0.530747 0.429800
vt 0.241349 0.404163
vt 0.557691 0.684567
vt 0.230387 0.676877
vt 0.848595 0.634789
vt 0.953145 0.639309
vt 0.649598 0.669534
vt 0.389174 0.688503
vt 0.018910 0.639309
vt 0.120456 0.668274
vt 0.036107 0.774074
vt 0.157858 0.779954
vt 0.773397 0.774619
vt 0.526341 0.773267
vt 0.277379 0.770953
vt 0.970341 0.774074
vt 0.614719 0.776184
vt 0.391860 0.768386
vt 0.118089 0.858710
vt 0.828826 0.842575
vt 0.927833 0.840594
vt 0.577876 0.869336
vt 0.715001 0.838065
vt 0.238778 0.864465
vt 0.045931 0.852415
vt 0.780324 0.883798
vt 0.449000 0.984677
vt 0.760432 0.932340
vt 0.900435 0.857830
vt 0.519804 0.272266
vt 0.388277 0.269441
vt 0.267340 0.286524
vt 0.125527 0.260888
vt 0.967849 0.260888
vt 0.778823 0.260888
vt 0.617116 0.293566
vt 0.033615 0.260888
vt 0.025820 0.414517
vt 0.245313 0.124843
vt 0.106827 0.114338
vt 0.791367 0.109984
vt 0.533239 0.129552
vt 0.389257 0.133653
vt 0.024112 0.108455
vt 0.636250 0.122517
vt 0.785535 0.018094
vt 0.626706 0.018094
vt 0.525634 0.018094
vt 0.391044 0.018094
vt 0.116153 0.018094
vt 0.963087 0.018094
vt 0.256652 0.018094
vt 0.028852 0.018094
vt 0.023395 0.843077
vt 0.958347 0.108455
s 0
f 3/1/1 9/2/1 10/3/1
f 1/4/2 14/5/2 8/6/2
f 6/7/3 12/8/3 13/9/3
f 4/10/4 10/11/4 11/12/4
f 1/4/5 9/2/5 2/13/5
f 7/14/6 13/9/6 14/5/6
f 5/15/7 11/12/7 12/8/7
f 13/9/8 21/16/8 14/5/8
f 11/12/9 19/17/9 12/8/9
f 10/3/10 16/18/10 17/19/10
f 8/6/11 21/16/11 15/20/11
f 12/8/12 20/21/12 13/9/12
f 11/12/13 17/22/13 18/23/13
f 9/2/14 15/20/14 16/18/14
f 18/23/15 24/24/15 25/25/15
f 15/20/16 23/26/16 16/18/16
f 20/21/17 28/27/17 21/16/17
f 19/17/18 25/25/18 26/28/18
f 16/18/19 24/29/19 17/19/19
f 21/16/20 22/30/20 15/20/20
f 20/21/21 26/28/21 27/31/21
f 25/25/22 33/32/22 26/28/22
f 24/29/23 30/33/23 31/34/23
f 22/30/24 35/35/24 29/36/24
f 26/28/25 34/37/25 27/31/25
f 24/24/26 32/38/26 25/25/26
f 23/26/27 29/36/27 30/33/27
f 28/27/28 34/37/28 35/35/28
f 30/33/29 29/36/29 36/39/29
f 35/35/30 34/40/30 36/39/30
f 33/41/31 32/42/31 36/39/31
f 31/34/32 30/33/32 36/39/32
f 29/36/33 35/35/33 36/39/33
f 34/40/34 33/41/34 36/39/34
f 32/42/35 31/34/35 36/39/35
f 6/7/36 43/43/36 42/44/36
f 4/10/37 41/45/37 40/46/37
f 2/13/38 39/47/38 38/48/38
f 7/14/39 37/49/39 43/43/39
f 6/7/40 41/45/40 5/15/40
f 4/10/41 39/50/41 3/51/41
f 2/13/42 37/49/42 1/4/42
f 40/46/43 48/52/43 47/53/43
f 39/47/44 45/54/44 38/48/44
f 37/49/45 50/55/45 43/43/45
f 41/45/46 49/56/46 48/52/46
f 39/50/47 47/53/47 46/57/47
f 38/48/48 44/58/48 37/49/48
f 43/43/49 49/56/49 42/44/49
f 44/58/50 52/59/50 51/60/50
f 49/56/51 57/61/51 56/62/51
f 48/52/52 54/63/52 47/53/52
f 45/54/53 53/64/53 52/59/53
f 50/55/54 51/60/54 57/61/54
f 49/56/55 55/65/55 48/52/55
f 47/53/56 53/66/56 46/57/56
f 3/1/57 2/13/57 9/2/57
f 1/4/58 7/14/58 14/5/58
f 6/7/59 5/15/59 12/8/59
f 4/10/60 3/51/60 10/11/60
f 1/4/61 8/6/61 9/2/61
f 7/14/62 6/7/62 13/9/62
f 5/15/63 4/10/63 11/12/63
f 13/9/64 20/21/64 21/16/64
f 11/12/65 18/23/65 19/17/65
f 10/3/66 9/2/66 16/18/66
f 8/6/67 14/5/67 21/16/67
f 12/8/68 19/17/68 20/21/68
f 11/12/69 10/11/69 17/22/69
f 9/2/70 8/6/70 15/20/70
f 18/23/71 17/22/71 24/24/71
f 15/20/72 22/30/72 23/26/72
f 20/21/73 27/31/73 28/27/73
f 19/17/74 18/23/74 25/25/74
f 16/18/75 23/26/75 24/29/75
f 21/16/76 28/27/76 22/30/76
f 20/21/77 19/17/77 26/28/77
f 25/25/78 32/38/78 33/32/78
f 24/29/79 23/26/79 30/33/79
f 22/30/80 28/27/80 35/35/80
f 26/28/81 33/32/81 34/37/81
f 24/24/82 31/67/82 32/38/82
f 23/26/83 22/30/83 29/36/83
f 28/27/84 27/31/84 34/37/84
f 6/7/85 7/14/85 43/43/85
f 4/10/86 5/15/86 41/45/86
f 2/13/38 3/1/38 39/47/38
f 7/14/87 1/4/87 37/49/87
f 6/7/88 42/44/88 41/45/88
f 4/10/41 40/46/41 39/50/41
f 2/13/89 38/48/89 37/49/89
f 40/46/90 41/45/90 48/52/90
f 39/47/91 46/68/91 45/54/91
f 37/49/92 44/58/92 50/55/92
f 41/45/93 42/44/93 49/56/93
f 39/50/94 40/46/94 47/53/94
f 38/48/95 45/54/95 44/58/95
f 43/43/96 50/55/96 49/56/96
f 44/58/97 45/54/97 52/59/97
f 49/56/98 50/55/98 57/61/98
f 48/52/99 55/65/99 54/63/99
f 45/54/100 46/68/100 53/64/100
f 50/55/101 44/58/101 51/60/101
f 49/56/102 56/62/102 55/65/102
f 47/53/103 54/63/103 53/66/103
